<?xml version="1.0" encoding="UTF-8" standalone="no"?>
<svg
   xmlns:dc="http://purl.org/dc/elements/1.1/"
   xmlns:cc="http://creativecommons.org/ns#"
   xmlns:rdf="http://www.w3.org/1999/02/22-rdf-syntax-ns#"
   xmlns:svg="http://www.w3.org/2000/svg"
   xmlns="http://www.w3.org/2000/svg"
   xmlns:sodipodi="http://sodipodi.sourceforge.net/DTD/sodipodi-0.dtd"
   xmlns:inkscape="http://www.inkscape.org/namespaces/inkscape"
   width="119.99931mm"
   height="60.608002mm"
   viewBox="0 0 119.99931 60.608002"
   version="1.1"
   id="svg8"
   inkscape:version="1.0.1 (3bc2e813f5, 2020-09-07)"
   sodipodi:docname="logo.svg">
  <defs
     id="defs2" />
  <sodipodi:namedview
     id="base"
     pagecolor="#ffffff"
     bordercolor="#666666"
     borderopacity="1.0"
     inkscape:pageopacity="0.0"
     inkscape:pageshadow="2"
     inkscape:zoom="2.8"
     inkscape:cx="220.90771"
     inkscape:cy="92.49037"
     inkscape:document-units="mm"
     inkscape:current-layer="layer1"
     inkscape:document-rotation="0"
     showgrid="false"
     inkscape:window-width="1920"
     inkscape:window-height="1012"
     inkscape:window-x="1680"
     inkscape:window-y="44"
     inkscape:window-maximized="0"
     fit-margin-top="0"
     fit-margin-left="0"
     fit-margin-right="0"
     fit-margin-bottom="0" />
  <metadata
     id="metadata5">
    <rdf:RDF>
      <cc:Work
         rdf:about="">
        <dc:format>image/svg+xml</dc:format>
        <dc:type
           rdf:resource="http://purl.org/dc/dcmitype/StillImage" />
        <dc:title></dc:title>
      </cc:Work>
    </rdf:RDF>
  </metadata>
  <g
     inkscape:label="Layer 1"
     inkscape:groupmode="layer"
     id="layer1">
    <g
       id="g3060"
       transform="matrix(1.9785286,0,0,1.9785286,-58.173882,-123.99307)">
      <rect
         style="fill:#0076ff;fill-opacity:1;fill-rule:evenodd;stroke-width:0.264583"
         id="rect14"
         width="60.650784"
         height="30.632866"
         x="29.402599"
         y="62.669338" />
      <g
         aria-label="ffizer"
         id="text12"
         style="font-size:10.5833px;line-height:1.25;font-family:'CaskaydiaCove Nerd Font';-inkscape-font-specification:'CaskaydiaCove Nerd Font';fill:none;fill-opacity:1;stroke:#e2edfe;stroke-width:0.165;stroke-miterlimit:4;stroke-dasharray:none;stroke-dashoffset:0;stroke-opacity:1"
         transform="matrix(1.2987734,0,0,1.2987734,-11.167789,-21.850513)">
        <path
           d="m 41.750419,74.215046 q -1.467606,0 -1.467606,1.80867 v 0.82682 h 2.24275 v 0.909502 h -2.24275 v 3.327952 h -1.095537 v -3.327952 h -1.725987 v -0.909502 h 1.725987 v -0.775144 q 0,-1.426265 0.645953,-2.13423 0.645954,-0.707965 1.948196,-0.707965 0.589109,0 1.136877,0.103353 l -0.113687,0.950843 q -0.60978,-0.07235 -1.054196,-0.07235 z"
           style="fill:none;fill-opacity:1;stroke:#e2edfe;stroke-width:0.165;stroke-miterlimit:4;stroke-dasharray:none;stroke-dashoffset:0;stroke-opacity:1"
           id="path861" />
        <path
           d="m 47.951571,74.215046 q -1.467606,0 -1.467606,1.80867 v 0.82682 h 2.24275 v 0.909502 h -2.24275 v 3.327952 h -1.095537 v -3.327952 h -1.725987 v -0.909502 h 1.725987 v -0.775144 q 0,-1.426265 0.645954,-2.13423 0.645953,-0.707965 1.948195,-0.707965 0.589109,0 1.136878,0.103353 l -0.113688,0.950843 q -0.60978,-0.07235 -1.054196,-0.07235 z"
           style="fill:none;fill-opacity:1;stroke:#e2edfe;stroke-width:0.165;stroke-miterlimit:4;stroke-dasharray:none;stroke-dashoffset:0;stroke-opacity:1"
           id="path863" />
        <path
           d="m 52.912493,74.742144 q -0.206705,0 -0.382404,-0.103352 -0.1757,-0.103353 -0.279052,-0.279052 -0.103353,-0.1757 -0.103353,-0.382405 0,-0.206705 0.103353,-0.382404 0.103352,-0.175699 0.279052,-0.279052 0.175699,-0.103352 0.382404,-0.103352 0.206705,0 0.382404,0.103352 0.1757,0.103353 0.279052,0.279052 0.103353,0.175699 0.103353,0.382404 0,0.206705 -0.103353,0.382405 -0.103352,0.175699 -0.279052,0.279052 -0.175699,0.103352 -0.382404,0.103352 z m 0.60978,5.446679 h 1.684646 v 0.899167 h -4.867904 v -0.899167 h 2.087721 v -3.669015 h -1.777663 v -0.909503 h 2.8732 z"
           style="fill:none;fill-opacity:1;stroke:#e2edfe;stroke-width:0.165;stroke-miterlimit:4;stroke-dasharray:none;stroke-dashoffset:0;stroke-opacity:1"
           id="path865" />
        <path
           d="m 57.857912,80.178487 h 3.209096 v 0.909503 h -4.526841 v -0.909503 l 3.188425,-3.658679 h -3.188425 v -0.909503 h 4.423488 v 0.909503 z"
           style="fill:none;fill-opacity:1;stroke:#e2edfe;stroke-width:0.165;stroke-miterlimit:4;stroke-dasharray:none;stroke-dashoffset:0;stroke-opacity:1"
           id="path867" />
        <path
           d="m 67.412854,78.132107 q 0,0.377237 -0.03101,0.702798 h -3.70002 q 0.144693,0.682126 0.651121,1.038693 0.506427,0.356566 1.333247,0.356566 0.635618,0 1.343583,-0.144694 l 0.134359,0.961179 q -0.759642,0.144693 -1.601965,0.144693 -0.93534,0 -1.591629,-0.330728 -0.651121,-0.330728 -0.992184,-0.966346 -0.341063,-0.640786 -0.341063,-1.555456 0,-0.888831 0.289387,-1.52445 0.289387,-0.635618 0.842323,-0.971513 0.558103,-0.335896 1.338415,-0.335896 1.116208,0 1.72082,0.676959 0.604612,0.676959 0.604612,1.948195 z M 66.42067,77.997749 q 0,-0.733803 -0.351399,-1.13171 -0.346231,-0.397908 -0.971514,-0.397908 -0.635618,0 -1.012854,0.397908 -0.377237,0.397907 -0.444416,1.13171 z"
           style="fill:none;fill-opacity:1;stroke:#e2edfe;stroke-width:0.165;stroke-miterlimit:4;stroke-dasharray:none;stroke-dashoffset:0;stroke-opacity:1"
           id="path869" />
        <path
           d="m 72.456459,75.506953 q 0.568439,0 0.919837,0.21704 0.356566,0.211873 0.52193,0.661456 0.170532,0.449584 0.170532,1.178219 h -1.085201 q 0,-0.594277 -0.180867,-0.857826 -0.1757,-0.268716 -0.573607,-0.268716 -0.687294,0 -1.038693,0.589109 -0.346231,0.58911 -0.346231,1.705317 v 1.446935 h 1.343583 v 0.909503 h -3.65868 v -0.909503 h 1.21956 v -3.658679 h -1.012855 v -0.909503 h 1.901687 l 0.186035,1.405595 h 0.124023 q 0.04651,-0.759641 0.418577,-1.13171 0.377237,-0.377237 1.09037,-0.377237 z"
           style="fill:none;fill-opacity:1;stroke:#e2edfe;stroke-width:0.165;stroke-miterlimit:4;stroke-dasharray:none;stroke-dashoffset:0;stroke-opacity:1"
           id="path871" />
      </g>
      <path
         style="fill:none;stroke:#e2edfe;stroke-width:0.265;stroke-linecap:butt;stroke-linejoin:miter;stroke-miterlimit:4;stroke-dasharray:0.795, 0.795;stroke-dashoffset:0;stroke-opacity:1"
         d="M 34.892295,64.032262 V 92.219778"
         id="path839" />
      <path
         style="fill:#ffffff;stroke:#e2edfe;stroke-width:0.264583;stroke-linecap:butt;stroke-linejoin:miter;stroke-miterlimit:4;stroke-dasharray:1.05833, 0.529166;stroke-dashoffset:0;stroke-opacity:1"
         d="m 30.746336,87.924033 c 56.180124,-0.0945 56.180124,-0.0945 56.180124,-0.0945"
         id="path841" />
    </g>
  </g>
</svg>
